# xmcd
#
# Track frame offsets:
#	150
#	10150
#	24360
#	37575
#	52452
#	66907
#	92470
#	114620
#	122590
#	141060
#	163227
#	181500
#
# Disc length: 2698 seconds
#
# Revision: 1
# Processed by: cddbd v1.5.2PL0 Copyright (c) Steve Scherf et al.
# Submitted via: audiograbber 1.83.01
#
DISCID=940a880c
DTITLE=Blue Notes - Citylights
DYEAR=1997
DGENRE=Pop
TTITLE0=Fantasy
TTITLE1=Citylights
TTITLE2=Once again
TTITLE3=Summerrain
TTITLE4=Halftime
TTITLE5=Floating
TTITLE6=Memories
TTITLE7=Doubbletime
TTITLE8=A short recess
TTITLE9=A smile
TTITLE10=BeSINNliches
TTITLE11=Feel as one
EXTD=
EXTT0=
EXTT1=
EXTT2=
EXTT3=
EXTT4=
EXTT5=
EXTT6=
EXTT7=
EXTT8=
EXTT9=
EXTT10=
EXTT11=
PLAYORDER=
